<?xml version="1.0" encoding="UTF-8"?>
<svg id="Capa_2" data-name="Capa 2" xmlns="http://www.w3.org/2000/svg" viewBox="0 0 80.64 80.63">
  <defs>
    <style>
      .cls-1 {
        fill: #fff;
        stroke-width: 0px;
      }
    </style>
  </defs>
  <g id="Capa_1-2" data-name="Capa 1">
    <g>
      <path class="cls-1" d="m44.03,61.85c-7.52,0-15.04,0-22.56,0-3.73,0-6.98-2.61-7.85-6.25-1.04-4.34,1.63-8.69,6.05-9.72.83-.19,1.01-.45.82-1.29-3.02-12.72-6.02-25.44-8.99-38.17-.16-.7-.42-.96-1.16-.95-2.46.04-4.92.02-7.38.01C1.19,5.48,0,4.38,0,2.76,0,1.11,1.15.01,2.92,0c3.47,0,6.93,0,10.4,0,1.57,0,2.51.73,2.88,2.27.8,3.31,1.57,6.63,2.36,9.95q.28,1.19,1.55,1.19c5.81,0,11.63,0,17.44,0,1.74,0,2.9,1.24,2.82,2.93-.07,1.48-1.25,2.54-2.88,2.54-5.12,0-10.23,0-15.35,0-.22,0-.45,0-.67,0q-1.35,0-1.05,1.27c1.48,6.25,2.95,12.5,4.43,18.76.43,1.82.85,3.64,1.28,5.47q.29,1.22,1.51,1.22c6.85,0,13.7,0,20.55,0,5.98,0,11.96,0,17.95,0,2.15,0,2.94-.63,3.48-2.72,1.76-6.76,3.48-13.53,5.32-20.26.59-2.18-.8-3.78-2.92-3.75-4.3.06-8.61.03-12.91,0-2.02-.01-3.33-2-2.53-3.83.45-1.04,1.27-1.64,2.42-1.64,4.75-.01,9.51-.07,14.26.02,3.76.07,7.23,3.67,7.38,7.42.05,1.18-.09,2.33-.4,3.48-1.78,6.75-3.59,13.5-5.3,20.27-1.03,4.11-4.55,6.55-8.42,6.53-14.7-.08-29.41-.03-44.11-.03-.5,0-1-.01-1.5.12-1.14.32-1.96,1.31-1.98,2.42-.02,1.08.79,2.18,1.88,2.52.54.17,1.1.18,1.66.18,14.82,0,29.63,0,44.45,0,1.86,0,3.03,1.13,2.98,2.86-.04,1.41-1.13,2.56-2.55,2.62-.87.04-1.73.01-2.6.01-6.9,0-13.81,0-20.71,0Z"/>
      <path class="cls-1" d="m51.11,25.49c.39-.33.62-.53.86-.71,1.19-.89,2.74-.79,3.73.25.97,1.01,1.11,2.6.11,3.66-1.83,1.96-3.74,3.85-5.69,5.69-1.01.95-2.59.9-3.61-.06-1.88-1.79-3.72-3.63-5.52-5.51-1.05-1.11-.97-2.75.05-3.79,1.03-1.05,2.59-1.12,3.8-.17.21.16.35.44.67.48.18-.28.09-.6.09-.89,0-4.56,0-9.11.01-13.67,0-1.38.92-2.46,2.2-2.68,1.4-.24,2.64.48,3.13,1.8.15.41.14.82.14,1.24,0,4.42,0,8.83,0,13.25,0,.3,0,.61,0,1.11Z"/>
      <path class="cls-1" d="m37.69,72.51c0,4.53-3.55,8.12-8.05,8.12-4.59,0-8.16-3.54-8.16-8.1,0-4.53,3.55-8.12,8.05-8.12,4.59,0,8.16,3.54,8.16,8.1Zm-8.05-2.59c-1.39-.02-2.62,1.17-2.66,2.59-.04,1.37,1.2,2.6,2.63,2.61,1.28,0,2.53-1.2,2.57-2.51.05-1.39-1.16-2.67-2.54-2.7Z"/>
      <path class="cls-1" d="m67.21,72.53c0,4.52-3.56,8.1-8.07,8.11-4.58,0-8.15-3.55-8.15-8.11,0-4.53,3.56-8.1,8.07-8.11,4.58,0,8.15,3.55,8.15,8.11Zm-5.51.05c0-1.41-1.22-2.67-2.59-2.65-1.41.02-2.61,1.23-2.61,2.64,0,1.35,1.18,2.52,2.59,2.56,1.31.04,2.6-1.23,2.61-2.55Z"/>
    </g>
  </g>
</svg>