<?xml version="1.0" encoding="UTF-8"?>
<svg id="Capa_2" data-name="Capa 2" xmlns="http://www.w3.org/2000/svg" viewBox="0 0 79.18 75.93">
  <defs>
    <style>
      .cls-1 {
        fill: #fff;
        stroke: #a6a6a6;
        stroke-miterlimit: 10;
        stroke-width: 4.71px;
      }
    </style>
  </defs>
  <g id="Capa_1-2" data-name="Capa 1">
    <path class="cls-1" d="m43.21,4.6l8.38,16.99c.59,1.19,1.72,2.01,3.04,2.21l18.75,2.72c3.31.48,4.63,4.54,2.23,6.88l-13.57,13.22c-.95.93-1.38,2.26-1.16,3.57l3.2,18.67c.56,3.29-2.89,5.8-5.85,4.25l-16.77-8.82c-1.17-.62-2.58-.62-3.75,0l-16.77,8.82c-2.96,1.55-6.41-.96-5.85-4.25l3.2-18.67c.22-1.31-.21-2.64-1.16-3.57l-13.57-13.22c-2.39-2.33-1.07-6.4,2.23-6.88l18.75-2.72c1.31-.19,2.45-1.02,3.04-2.21l8.38-16.99c1.48-3,5.75-3,7.23,0Z"/>
  </g>
</svg>