<?xml version="1.0" encoding="UTF-8"?>
<svg id="Capa_2" data-name="Capa 2" xmlns="http://www.w3.org/2000/svg" viewBox="0 0 84.35 101.78">
  <defs>
    <style>
      .cls-1 {
        fill: #fff;
        stroke-width: 0px;
      }
    </style>
  </defs>
  <g id="Capa_1-2" data-name="Capa 1">
    <g>
      <path class="cls-1" d="m12,101.78c-3.01-.79-5.32-2.44-6.68-5.31-.56-1.19-.8-2.46-.88-3.74-.37-5.64-.69-11.29-1.05-16.93-.43-6.56-.89-13.13-1.32-19.69-.3-4.62-.56-9.24-.86-13.86-.36-5.54-.72-11.08-1.13-16.62-.22-2.97-.11-5.83,1.93-8.27,1.85-2.21,4.17-3.44,7.07-3.45,22.08-.01,44.15-.02,66.23,0,5.03,0,9.11,4.11,9.05,9.13-.05,4.1-.46,8.18-.73,12.27-.16,2.31-.29,4.62-.45,6.93-.39,5.94-.78,11.87-1.16,17.81-.22,3.46-.42,6.93-.64,10.39-.31,4.68-.63,9.37-.94,14.05-.2,3-.28,6.02-.61,9-.48,4.27-2.93,6.96-7.06,8.13-.13.04-.25.09-.37.14H12ZM42.2,20.53c-4.57,0-9.14,0-13.71,0-6.32,0-12.65.03-18.97-.02-2.05-.02-3.02,1.4-2.96,2.84.08,1.98.22,3.96.36,5.94.38,5.64.77,11.28,1.14,16.92.3,4.59.55,9.18.85,13.76.43,6.6.9,13.2,1.33,19.79.29,4.32.54,8.65.83,12.97.09,1.32.88,2.19,2.17,2.49.56.13,1.12.12,1.68.12,18.18,0,36.35,0,54.53,0,.33,0,.66.01.99-.01,1.88-.13,2.79-1.1,2.9-2.97.19-3.33.41-6.67.63-10,.5-7.56,1.02-15.11,1.53-22.66.34-5.05.66-10.1.99-15.15.45-7.03.9-14.06,1.33-21.09.07-1.15-.36-2.07-1.39-2.66-.64-.37-1.35-.28-2.04-.28-10.73,0-21.45,0-32.18,0Z"/>
      <path class="cls-1" d="m43.42,6.5c-6.85,0-13.7,0-20.55,0-1.46,0-2.47-.69-3.05-1.98-.58-1.28-.31-2.47.61-3.49C21.09.3,21.93,0,22.92,0c2.81.02,5.63,0,8.44,0,10.82,0,21.64,0,32.46,0,1.97,0,3.39,1.28,3.46,3.07.08,1.96-1.35,3.42-3.41,3.42-6.42.01-12.84,0-19.26,0-.4,0-.79,0-1.19,0Z"/>
      <path class="cls-1" d="m57.63,57.91c0-7.34,0-14.69,0-22.03,0-1.07.23-2.04,1-2.81,1.73-1.74,4.7-.96,5.44,1.42.18.58.2,1.17.2,1.77,0,14.43,0,28.85,0,43.28,0,.56-.02,1.12-.17,1.67-.4,1.51-1.84,2.59-3.3,2.49-1.65-.11-3-1.41-3.14-3.05-.03-.36-.02-.73-.02-1.09,0-7.21,0-14.43,0-21.64Z"/>
      <path class="cls-1" d="m26.75,57.92c0,7.38,0,14.76,0,22.13,0,1.9-1,3.19-2.67,3.55-1.61.34-3.36-.71-3.76-2.31-.13-.51-.18-1.05-.18-1.57,0-14.56-.01-29.11,0-43.67,0-2.53,1.54-4.14,3.69-3.89,1.74.21,2.92,1.54,2.93,3.42.02,3.47,0,6.95,0,10.42,0,3.97,0,7.94,0,11.91Z"/>
      <path class="cls-1" d="m45.44,57.87c0,7.48,0,14.95,0,22.43,0,1.41-.61,2.41-1.84,3.04-1.18.6-2.32.43-3.36-.33-.92-.67-1.31-1.6-1.3-2.75.02-4.86,0-9.73,0-14.59,0-10.02,0-20.05,0-30.07,0-2.37,1.86-3.91,4.05-3.37,1.51.37,2.44,1.65,2.44,3.42,0,7.41,0,14.82,0,22.23Z"/>
    </g>
  </g>
</svg>